/* XPM */
static char *roco16_xpm[] = {
/* width height num_colors chars_per_pixel */
"    16    16      256            2",
/* colors */
"`` c #ffffff",
"`. c #fefefe",
"`# c #fbf9f5",
"`a c #d3d1d0",
"`b c #9898a2",
"`c c #838290",
"`d c #848392",
"`e c #a0a0a9",
"`f c #dfdcda",
"`g c #fcfaf7",
"`h c #fefefd",
"`i c #ece3d6",
"`j c #a38964",
"`k c #5b4d44",
"`l c #1a1e3e",
"`m c #16193b",
"`n c #1c203e",
"`o c #1d1f3d",
"`p c #635444",
"`q c #af9672",
"`r c #f2ebe1",
"`s c #fefdfd",
"`t c #e4d8c5",
"`u c #8c6f47",
"`v c #63554b",
"`w c #363546",
"`x c #594a47",
"`y c #807055",
"`z c #5a4843",
"`A c #554c4a",
"`B c #373046",
"`C c #63514b",
"`D c #917a4f",
"`E c #ede4d7",
"`F c #f4eee5",
"`G c #886e50",
"`H c #866d50",
"`I c #776552",
"`J c #957248",
"`K c #b7955d",
"`L c #b99c68",
"`M c #dec98e",
"`N c #b89356",
"`O c #7d6f3d",
"`P c #5dc02d",
"`Q c #7c714a",
"`R c #997e61",
"`S c #f9f6ef",
"`T c #c4ae90",
"`U c #645446",
"`V c #544c4f",
"`W c #403b48",
"`X c #524748",
"`Y c #c1a769",
"`Z c #a08869",
"`0 c #fef7ba",
"`1 c #b6825b",
"`2 c #36852e",
"`3 c #4ec021",
"`4 c #4d394e",
"`5 c #6c5b44",
"`6 c #d7c5ae",
"`7 c #f9f7f5",
"`8 c #9e815d",
".` c #524949",
".. c #242743",
".# c #685b4d",
".a c #463d42",
".b c #a98c5c",
".c c #b89f6c",
".d c #f5d59f",
".e c #8d8e49",
".f c #419a28",
".g c #616f74",
".h c #1c2f52",
".i c #5e4e46",
".j c #ad916f",
".k c #fdfcfb",
".l c #f2ede8",
".m c #93754d",
".n c #494248",
".o c #202341",
".p c #323246",
".q c #6b5c4b",
".r c #917145",
".s c #d4af72",
".t c #dec97e",
".u c #66ad32",
".v c #67533b",
".w c #1c92cb",
".x c #174f7a",
".y c #533e3c",
".z c #a0845d",
".A c #faf8f5",
".B c #f0eae4",
".C c #937448",
".D c #232642",
".E c #282943",
".F c #262a43",
".G c #3e3141",
".H c #ab8b55",
".I c #7aa135",
".J c #324b50",
".K c #1969a0",
".L c #148ec3",
".M c #184d78",
".N c #543f3c",
".O c #9f825a",
".P c #f9f6f3",
".Q c #f5f2ef",
".R c #97784e",
".S c #5c4f4a",
".T c #212442",
".U c #2c2e44",
".V c #2c2944",
".W c #1b2a42",
".X c #60732d",
".Y c #466a6b",
".Z c #165c93",
".0 c #178cbc",
".1 c #1693c7",
".2 c #174e79",
".3 c #674c3d",
".4 c #a88c67",
".5 c #fcfbfa",
".6 c #b49c79",
".7 c #796247",
".8 c #292b45",
"#` c #292640",
"#. c #253341",
"## c #334e3c",
"#a c #5b8f97",
"#b c #63b5cc",
"#c c #087ab7",
"#d c #137fb2",
"#e c #1093c7",
"#f c #265c7e",
"#g c #805b3b",
"#h c #c4b192",
"#i c #d8cab7",
"#j c #8e7146",
"#k c #594b49",
"#l c #25374b",
"#m c #446868",
"#n c #85a391",
"#o c #8eb79e",
"#p c #9fcbb0",
"#q c #729d93",
"#r c #3991ad",
"#s c #068ec6",
"#t c #5a7c7d",
"#u c #8f663a",
"#v c #e9e0d3",
"#w c #b69f79",
"#x c #8f7d53",
"#y c #c3c27e",
"#z c #f0ea8c",
"#A c #f5e27b",
"#B c #f7cf65",
"#C c #f2cc64",
"#D c #f9e077",
"#E c #f0e787",
"#F c #c1d495",
"#G c #88724d",
"#H c #c7af8c",
"#I c #fefdfc",
"#J c #c0a588",
"#K c #a07a42",
"#L c #d7bf69",
"#M c #cab36b",
"#N c #ac8d58",
"#O c #93714f",
"#P c #906f4d",
"#Q c #a98b59",
"#R c #c4b16a",
"#S c #d3b661",
"#T c #a3783e",
"#U c #c8b09a",
"#V c #fdfdfd",
"#W c #f8f4f0",
"#X c #d7be88",
"#Y c #816235",
"#Z c #ae9160",
"#0 c #82684a",
"#1 c #a27f4c",
"#2 c #564344",
"#3 c #5f4841",
"#4 c #9c7a4b",
"#5 c #886b4e",
"#6 c #a48b60",
"#7 c #75582e",
"#8 c #dac693",
"a` c #f9f6f0",
"a. c #f7f5f4",
"a# c #c2a378",
"aa c #e2c26c",
"ab c #c9c1ab",
"ac c #f1eeec",
"ad c #ecdfca",
"ae c #ebe0c8",
"af c #b0afb7",
"ag c #b6b4ba",
"ah c #eee1c7",
"ai c #eee3d1",
"aj c #f4f2f1",
"ak c #d0c6af",
"al c #f2d77b",
"am c #d5b98d",
"an c #f9f8f7",
"ao c #d3c5b3",
"ap c #f7f1ea",
"aq c #f4efe9",
"ar c #c9beb4",
"as c #fcfbfb",
"at c #000000",
"au c #000000",
"av c #000000",
"aw c #000000",
"ax c #000000",
"ay c #000000",
"az c #000000",
"aA c #000000",
"aB c #000000",
"aC c #000000",
"aD c #000000",
"aE c #000000",
"aF c #000000",
"aG c #000000",
"aH c #000000",
"aI c #000000",
"aJ c #000000",
"aK c #000000",
"aL c #000000",
"aM c #000000",
"aN c #000000",
"aO c #000000",
"aP c #000000",
"aQ c #000000",
"aR c #000000",
"aS c #000000",
"aT c #000000",
"aU c #000000",
"aV c #000000",
"aW c #000000",
"aX c #000000",
"aY c #000000",
"aZ c #000000",
"a0 c #000000",
"a1 c #000000",
"a2 c #000000",
"a3 c #000000",
"a4 c #000000",
"a5 c #000000",
"a6 c #000000",
"a7 c #000000",
"a8 c #000000",
/* pixels */
"`````.```#`a`b`c`d`e`f`g```.````",
"```h```i`j`k`l`m`n`o`p`q`r```s``",
"`.```t`u`v`w`x`y`z`A`B`C`D`E```.",
"```F`G`H`I`J`K`L`M`N`O`P`Q`R`S``",
"```T`U`V`W`X`Y`Z`0`1`2`3`4`5`6``",
"`7`8.`...#.a.b.c.d.e.f.g.h.i.j.k",
".l.m.n.o.p.q.r.s.t.u.v.w.x.y.z.A",
".B.C.n.D.E.F.G.H.I.J.K.L.M.N.O.P",
".Q.R.S.T.U.V.W.X.Y.Z.0.1.2.3.4.5",
".k.6.7.8#`#.###a#b#c#d#e#f#g#h``",
"``#i#j#k#l#m#n#o#p#q#r#s#t#u#v``",
"```g#w#x#y#z#A#B#C#D#E#F#G#H#I``",
"````#J#K#L#M#N#O#P#Q#R#S#T#U```.",
"#V#W#X#Y#Z#0#1#2#3#4#5#6#7#8a``h",
"a.a#aaabacadaeafagahaiajakalam.k",
"anaoap```.`````````````.``aqaras"
};
