/* XPM */
static char *roco64_xpm[] = {
/* width height num_colors chars_per_pixel */
"    64    64      256            2",
/* colors */
"`` c #0c0706",
"`. c #3c863c",
"`# c #88865c",
"`a c #84ca3c",
"`b c #304244",
"`c c #76452c",
"`d c #c48664",
"`e c #d3c470",
"`f c #eae58a",
"`g c #82643f",
"`h c #84aa2c",
"`i c #c9a95d",
"`j c #482a29",
"`k c #9d6b42",
"`l c #d4c5ac",
"`m c #16d106",
"`n c #a98548",
"`o c #2e6d32",
"`p c #c7ac94",
"`q c #eec463",
"`r c #222442",
"`s c #544440",
"`t c #777179",
"`u c #a78e78",
"`v c #c4e6dc",
"`w c #e5b45c",
"`x c #837353",
"`y c #5c5838",
"`z c #ab945a",
"`A c #449a44",
"`B c #c7b96c",
"`C c #283242",
"`D c #09bbfc",
"`E c #e3d578",
"`F c #8e643e",
"`G c #694635",
"`H c #e4f29c",
"`I c #f0d474",
"`J c #9c5e3c",
"`K c #a07545",
"`L c #148fc4",
"`M c #77543a",
"`N c #c9a76f",
"`O c #74321c",
"`P c #b6854d",
"`Q c #4cba2c",
"`R c #ede3cc",
"`S c #fcf5d1",
"`T c #d4deac",
"`U c #291828",
"`V c #ddc48e",
"`W c #47353d",
"`X c #f6e4a3",
"`Y c #06a7f1",
"`Z c #84553c",
"`0 c #b77949",
"`1 c #c59950",
"`2 c #9ca2ac",
"`3 c #11da04",
"`4 c #4d454e",
"`5 c #d5a857",
"`6 c #9d7b5b",
"`7 c #7a644f",
"`8 c #efd48c",
".` c #3a2722",
".. c #91744f",
".# c #b99353",
".a c #373444",
".b c #dc9d5f",
".c c #868796",
".d c #1fa9e9",
".e c #a78455",
".f c #4c6654",
".g c #54869c",
".h c #d9b865",
".i c #543330",
".j c #585460",
".k c #a47c47",
".l c #e6d4b2",
".m c #cbb79e",
".n c #765d4e",
".o c #eae4de",
".p c #c89862",
".q c #e0c46d",
".r c #05b2fb",
".s c #2ed812",
".t c #917c54",
".u c #b99c5c",
".v c #d9bb7a",
".w c #181410",
".x c #9c9264",
".y c #b79974",
".z c #f0dc79",
".A c #baa586",
".B c #2b2b44",
".C c #5b4c40",
".D c #685447",
".E c #8e6d4d",
".F c #d8b05c",
".G c #e4d4cc",
".H c #1d557c",
".I c #f6e581",
".J c #7e6c53",
".K c #a8be90",
".L c #9a8355",
".M c #795c40",
".N c #faeca9",
".O c #cabdb3",
".P c #e5bc63",
".Q c #f8f4ef",
".R c #261540",
".S c #a98c5b",
".T c #e2cc72",
".U c #f0cc6a",
".V c #674c3c",
".W c #e3cb91",
".X c #343e6c",
".Y c #f8ec8a",
".Z c #2b3553",
".0 c #ded489",
".1 c #906b40",
".2 c #b78c4e",
".3 c #cba053",
".4 c #0fe404",
".5 c #3b3b4b",
".6 c #171540",
".7 c #99846b",
".8 c #a4a274",
"#` c #ddccb7",
"#. c #4cbad4",
"## c #a0c698",
"#a c #4c9eb4",
"#b c #24668c",
"#c c #6cea38",
"#d c #74a338",
"#e c #2486b4",
"#f c #369d30",
"#g c #64aaa4",
"#h c #68c0d4",
"#i c #bcda9c",
"#j c #586274",
"#k c #245440",
"#l c #748684",
"#m c #3cbae8",
"#n c #68b434",
"#o c #4cb424",
"#p c #2fbb19",
"#q c #8c92a4",
"#r c #1f7bac",
"#s c #a8ba50",
"#t c #647a34",
"#u c #84beac",
"#v c #54ce2c",
"#w c #8f7e69",
"#x c #37573c",
"#y c #3c7c40",
"#z c #b8b6b4",
"#A c #bcc694",
"#B c #040634",
"#C c #049ee8",
"#D c #5496ac",
"#E c #27d00a",
"#F c #a8a9b2",
"#G c #677377",
"#H c #80776a",
"#I c #5ca25c",
"#J c #7ca674",
"#K c #bcdcd0",
"#L c #365673",
"#M c #40684c",
"#N c #fcf490",
"#O c #34ac24",
"#P c #74aeac",
"#Q c #6cc224",
"#R c #dc924c",
"#S c #9c867c",
"#T c #7ccabc",
"#U c #1c96c4",
"#V c #84b664",
"#W c #44ceec",
"#X c #47adc9",
"#Y c #6a6358",
"#Z c #3c1e1c",
"#0 c #67595f",
"#1 c #bcb27c",
"#2 c #3c1e34",
"#3 c #bcb264",
"#4 c #b4d4ac",
"#5 c #d9d4cb",
"#6 c #405a54",
"#7 c #b9a364",
"#8 c #d6bb92",
"a` c #307aa8",
"a. c #b9aca1",
"a# c #af9b8f",
"aa c #7e7b88",
"ab c #44224c",
"ac c #a2685a",
"ad c #d2c8c1",
"ae c #352c3e",
"af c #fcfcad",
"ag c #7cb6cc",
"ah c #41454f",
"ai c #1eda07",
"aj c #666772",
"ak c #6c969c",
"al c #1c0e44",
"am c #ceb077",
"an c #673d2f",
"ao c #f8edc5",
"ap c #f1dd8d",
"aq c #f0ece7",
"ar c #9c9ca0",
"as c #ace6bc",
"at c #1fe504",
"au c #3c8eb4",
"av c #fcba64",
"aw c #846a64",
"ax c #754c33",
"ay c #c69150",
"az c #7e6b42",
"aA c #223d3a",
"aB c #463c44",
"aC c #865c3c",
"aD c #544c4d",
"aE c #c7a15d",
"aF c #31df0c",
"aG c #989c4c",
"aH c #293b57",
"aI c #e4de84",
"aJ c #1b1d40",
"aK c #25aeea",
"aL c #2cc517",
"aM c #3c6684",
"aN c #2c263b",
"aO c #5cb644",
"aP c #b4906c",
"aQ c #ec9e5c",
"aR c #d4beac",
"aS c #847e5c",
"aT c #4ca62c",
"aU c #593c31",
"aV c #5c5e74",
"aW c #ecddb7",
"aX c #685b4e",
"aY c #e6dcd0",
"aZ c #988c50",
"a0 c #fcfefc",
"a1 c #281b42",
"a2 c #68c8cc",
"a3 c #64b6bc",
"a4 c #8c8274",
"a5 c #5a534e",
"a6 c #ccb680",
"a7 c #14aaec",
"a8 c #14b4f8",
/* pixels */
"a0a0a0a0a0a0a0a0a0a0a0a0a0a0a0a0a0a0a0a0a0a0a0a0a0a0a0a0a0a0a0a0a0a0a0a0a0a0a0a0a0a0a0a0a0a0a0a0a0a0a0a0a0a0a0a0a0a0a0a0a0a0a0a0",
"a0a0a0a0a0a0a0a0a0a0a0a0a0a0a0a0a0a0a0a0a0a0a0a0.Q#5#F.c`tajaVajajaj`t.c#Fadaqa0a0a0a0a0a0a0a0a0a0a0a0a0a0a0a0a0a0a0a0a0a0a0a0a0",
"a0a0a0a0a0a0a0a0a0a0a0a0a0a0a0a0a0a0a0.Q.Qa0#z#G.X`raN`r`r`raN`r`r`r`r`r`r.B.a#j#Faqa0.Qa0a0a0a0a0a0a0a0a0a0a0a0a0a0a0a0a0a0a0a0",
"a0a0a0a0a0a0a0a0a0a0a0a0a0a0a0a0a0a0ao.y.caV.t`6`W.B.B.Z.B.B.B.B.B.B.B.Z.B.B.B.V..`tara.am.Qa0a0a0a0a0a0a0a0a0a0a0a0a0a0a0a0a0a0",
"a0a0a0a0a0a0a0a0a0a0a0a0a0a0a0a0a0.W.P`s.n`w`I.k.B.B.B.B.B.B.B.B.B.B.B.B.B.B`r`s.p`I`1`4.E`qaqa0a0a0a0a0a0a0a0a0a0a0a0a0a0a0a0a0",
"a0a0a0a0a0a0a0a0a0a0a0a0a0a0`RaY#`.3.Jae.k.t.CaJ.B.B.B.B.B.B.B.B.B.B.B.B.B.B.B`r.B`x.#`M.BaE.FaqaR.Qa0a0a0a0a0a0a0a0a0a0a0a0a0a0",
"a0a0a0a0a0a0a0a0a0a0a0a0a0`S.paa.k`6aX`z.kaBaJ.B.B.B.B`r.B.B.B.B.B.B`r.B.B.B.B`C`r`r.V.e.t`x.p`u`u.va0a0a0a0a0a0a0a0a0a0a0a0a0a0",
"a0a0a0a0a0a0a0a0a0a0a0a0.Q.F.L.a`F.2`5.h.taB.B.B.B.B.B.B.B.B.B.B.B.B.B.B.B`r.B.B.B.B.V.e.q`5`6.C`4`5.Wa0a0a0a0a0a0a0a0a0a0a0a0a0",
"a0a0a0a0a0a0a0a0a0a0aqaqa6.3aD.a`s.C.5`raJ`r.B.B.B.B.B.B`r.B`r`r`r.B`r.B.B`C`r.B.B.B`r`r.B`4`saBae#w`5.oaYa0a0a0a0a0a0a0a0a0a0a0",
"a0a0a0a0a0a0a0a0a0a0`Va#.e.e.J.F.P.D`r.B.B.B.B`r`r`r`r`r.B`C.B.a`C.a`C.BaJ`r`r`r`r.B.B.B.Bae`K.F.u`x`1`p.yaqa0a0a0a0a0a0a0a0a0a0",
"a0a0a0a0a0a0a0a0a0aW.3`s.n.k`5.2ah.6aJ.B`r`r`rahaD.n`g.L`i`i.h`e...V.V.S#7`x.V`4`C`r`r.B`r.6`r`7.F.3.E.Daw.Pa0a0a0a0a0a0a0a0a0a0",
"a0a0a0a0a0a0a0a0a0`NaEae.a.VaB`C`4`x`x.B`4.C#H`s.i`J`F`0.h.h.v.q.EanaU.#.q`Pan.``x`ya5`ra5aS#Y`baA.V`s.B.D.F#`a0a0a0a0a0a0a0a0a0",
"a0a0a0a0a0a0a0a0aYay.L`4.u`5.k`i`q`q`5`s`i.k.kaZ...1aC`K.#aEaE`i.M.i.i`K.u`6`g`x.t.k.3.J..av#saFaGacaE`x`s`i`p.Qa0a0a0a0a0a0a0a0",
"a0a0a0a0a0a0a0.va#`n...3.P`x#R`6.C`4aE`K.S`#`M`k`1.hap`z`z#7#1#8a6a6`e.W.T.v.u.1`j.M.u`K`P#n`maLay`K.L.z`n.2.A.m.la0a0a0a0a0a0a0",
"a0a0a0a0a0a0`R.#aB.D`k.t.5`r`5.E.6`r#Y`i`P`0`M`c`F.haf.7#ZaC.e.v`Rao.N.N`i`I`n.1`j`K`0aZ#pai`3#oaQ#YaJ`7`naCaDaw.Pa0a0a0a0a0a0a0",
"a0a0a0a0a0a0.m`1`WaeaD.CaN`r.Say.B.B`r`4..`g.V`n`F.haf.y.`.E.S.Wa0`S`X`X`1.z.kaC.C`M#daiai#E`3#d#Ra5aJae.C`W.B.D`5.oa0a0a0a0a0a0",
"a0a0a0a0a0a0.#aEae`7`q`6aN`r#HaE`4`r.B`raJ.6`7.I`FaEaf.8#2`6.S`V`S`S`X`XaE`E.kax.t`4#I.s#E#E`maG.p.Z`raB`1.uaB.D`5`la0a0a0a0a0a0",
"a0a0a0a0a0aqaP.u.D`w`i.B.BaJaD.pawaJ.B.B`C`r`s`I...2af#1`j`K.S`V`S`S`Xap`1`E`k`G.L.B.jaLai`m.s.##w`r.B`r.D`I.2.n.3#`.Qa0a0a0a0a0",
"a0a0a0a0.l.y#w.k`0.#.5`r.B.B.B.S.e.a.B.B.B.Bae.P.e`kaf`V`j`6.S`Vao`S`Xap.u.TaC.V.L.R#fai.sai#v`PaXaJ.B.BaJ.J`5.1.S.O.va0a0a0a0a0",
"a0a0a0a0aR.#aD.V.D`4.B.B.B.BaJ#Y.2#YaJ.B.B.BaN.p`zaC.Y.laU.1.#`Vaoao.N.WaE.qax.M`x#kaFat`A#J#d`6.ZaN.B.B.B.a.D.V.C.n`5aqa0a0a0a0",
"a0a0a0a0.y`5.a.B.t.3.a`r.B`C`r.aaZ.e.5`r`C.B`r..#3`c`8`X`G.E.#.qao.N.N#8.Fa6an`x.J#pat#O.6...e#YaJ.B.B.B`r`M.#`4`r`7.3.Ga0a0a0a0",
"a0a0a0a0`p`5`WaX.U`6aJ.B.B.B.BaJ#0`n.t`r.B.B`r.Vam`G.Faf.M`F`z.vaoaW.N#8.h.uaU.SaO.4aLaJa5.L.t`raN.B.B.B.B.a`5.Fae`gaEaYa0a0a0a0",
"a0a0a0a0.m.3.V.2`w.5`r.B.B.B.B.B`r#H`nazaJ.B.B`WaE.M.eaf`6aC.y.v`X`X.N`N.h`nan#VaiaiaA.5`naZ#L.ZaH`C`r.B`C.6.t.U.M`g.F.Qa0a0a0a0",
"a0a0a0`p#waE`M`1`y`r.B`C`r.B.B.B.B`r`#`naz`r`r.B`K.L`Z#N#7.M.u.v`X`X.N.y.qaC`y.sat#kaB`n.S#m#C`Y#CaHaN.B.B.B`r.u`K`Fa6.O.Ga0a0a0",
"a0a0a0aP.E.J.DaX.J`s`r.B.B.B.B.B.B`r.B#H.u.t.5`r`s.#ax.q.WaC.y.h`X`X.l.3.h`Z#p.4`o.V.u.S#6.d#C`Y#C.5`r.B.B.B.D.D`M.D`x.k.Ga0a0a0",
"a0a0a0aPaE.5aN.t`wae`r.B.B.B.B.B.B.B.BaJ#Y.3`5.Fax`g.1.e.N.k`z.v`8`X.v`5.paT.4`a.b.F.L.a`r#m#C`Y#CaH`r.B.BaJ.M.F`4aN`x.3#`a0a0a0",
"a0a0a0.A.FaX`W.F.u`r.B.B.B`r.B.B`r.B.B.BaJ.a.taZ`6aU.kaC`Iam.e.v`8`XaE`w#d.4#Q...xa5`r`r.ZaK#C`Y`Y.a`r.B.B`r`s.P.Sa1.u`1.oa0a0a0",
"a0a0a0.G.F...V.P`xaJ.B.B.B.B.B.B.B.B.B.B`C`r.B.u`K`saC`k.2`8.yamap.W.b#s`3`Qax`1`7.6.B`r.aaK`Y#C`Y.Z.B.B.B.B`C`5.#aBaE`5a0a0a0a0",
"a0a0.Q.O`i.eaC.3aB.B.B.B.B.B.B`r.BaN.B.B.B.B.B.aae`C`s`K`K`5.h.v`8.b#7`3#caDaJaBaH.ZaH.B`CaK#C`Y`Y.a`r.B.B.B`raS.3`G.3.laq.Qa0a0",
"a0a0aY.M.t`6.M.J.eaB`r.B`r.B.B.B.B`r`C`r.B.B.BaN.B`r.aax`k`K`5am.b.#`3#vaw`r`r#La8#C`Y.HaNaK`Y`Y`Y.ZaN`C.B`r.M.J`K.V.S.7a#a0a0a0",
"a0a0aq.k..`saB.E.Fae.B.B.B.B.B`r`C.B.B.B.B.B.B.B.BaN.B.a`6`Kay#R.#ai#c`7.6.B`r#La8#C.r.H.BaK`Y#C`Y.ZaN.B.B`r`M.F`saB.D.2`pa0a0a0",
"a0a0a0aP`5aD`r.2`5ae.B.B.B`r.B.B.B`r.B.B.B`r.B`r`C.B.B`r.5.t`0.#ai#o.D`r.B.Za1#La8#C.r.HaNaK`Y`Y`Y.a`r`C.B`r.D.P.DaJ`z.3#`a0a0a0",
"a0a0a0#``5.#ae.2`i`r`r.B.B.B.BaN.B.B.B`r.BaN`C.B`r.B.BaN`Cal`yai#nab.6aNaNaN`U#La8`Y.r.HaNaK`Y`Y`YaHaN.B.BaJ.C.P`M`4.P.p.Qa0a0a0",
"a0a0a0aq.3.h`sayaZaB.a`r.B.B`r`C.B`r`C.B.B.B.B.B.B.B.B`Ca1#x.s`h`J`r#L#b#b.Ha1#La8`Y.r.HaNaK`Y`Y`Y.a`r.B`raB`4.FaC`g.PaWa0a0a0a0",
"a0a0a0aqa4`q.M`P.JaE.5.B.B.B.B.B.B.B.B.B`r.B`r.B.B.B`C.R#x`m#t.paP`U#e.r.r`L`U#La8`Y.r.H.BaK`Y.r`YaHaN.BaJ...L.#`g`K`iaq.Qa0a0a0",
"a0a0a0.m.V.t.M.D`7`waB`r.B.B`r.B`r.B.BaN`C.B.B.BaN`ra1#yaL`C.na6`Nae#r.r.r`L`U#L`D`Y.r.HaNaK`Y`Y.r.a`r.Z`r..aE.D.D`gaw#waqa0a0a0",
"a0a0a0aY.k...a.B.M`w`s`r.B.B.B.B.B.B`r`C`r.B.B`C`raN#f#faJ`Way#8.qax#r.r.r`L.R#L`D`Y.r.H.BaK.r`Y.r.ZaN.B`r.1`5.aaea5.#.ya0a0a0a0",
"a0a0a0a0.y`5.ta1`g.F`saJ.B.B`r`C`r`C.B`r.B.B.BaJ`b#O`oal`C.g#Pag`T`0au.r.r`L`U#L`D`Y`D.HaN.d.r.r`Y.ZaN.BaJ..`5`W.5.h`1.Ga0a0a0a0",
"a0a0a0a0.oay`qaX.M`w`4`y`r`C.B.B.B`r.B.B`C`ra1#M#faA.R`4.Ja7`Y`Y#4#R#D.r.r`L.R#L`D`Y`D.H.B.d.r.r.r.a`r`4aD`g`5aB.S.Pama0a0a0a0a0",
"a0a0a0a0a0.W`q.u`F.F.C`1.5`r.B.B.B.B`C`ra1.5`.`o#2`j.1`M`6a8.r.r#Kava3`Y`D`L#Z#L`D`Y`D.HaN.d.r.r.r.a.6.L`6`g.3.M.3`q.Qa0a0a0a0a0",
"a0a0a0a0a0aq.x.F`MaZ`G`5.JaJ.B.B.B.B`raN#6`.aA.X.gak#l.2#7a7.r`Y`v`X#h.r.r#X`c#j`D.r`D.H.B.d.r.r.raH`r`i`K`7.J.1ay.oa0a0a0a0a0a0",
"a0a0a0a0a0`p.D`7.V.5aB`5.eaJ.B.B`r`rah#y#x.B`U#r`D`Y#X.2.A.r.r.r#K`Sa2`Y.r#U`Oaj`D.r`D.H.B.d.r.ra8`C.a.F.kae`s.V.J#S`Ra0a0a0a0a0",
"a0a0a0a0a0.o`K.eaDaN`s`5.#.B.a`r.5#M#xaN.6aJ`Ua``D#m#P`K`i##.K.K.q`8#A#ua2#g`J#H.r`Y`D.H.Ba7.r.ra8.XaU`w`6.Bae.t.2.ya0a0a0a0a0a0",
"a0a0a0a0a0a0#8ay.h.J`WaE.#aB.1#6.f`C.Ha`.g#G.x.0`E.z.z`I.T`q`q`q.P.P`q.U`q`I.z`E#4#T#W.HaJa7.r.r#XaC`s`w.E.a#7`q`P.Qa0a0a0a0a0a0",
"a0a0a0a0a0a0a0am.3`q`x.2aEaU.2`7#B.Za2as`f.Y#N.I.I`E.q.q.q.q.q.U.q.q.q.h.T.q.U.I.I.I.I.0.8#..r`D#7aC.V.F.J`n`q`5`Ra0a0a0a0a0a0a0",
"a0a0a0a0a0a0a0a0.W`q.F.....j.kaE`#.0.z`E`E`E`E.I`E`E`I.z.U`I.q`I.P.T.U`E`I.z.z.z`E.T`E`E`f.Y#i##`wax`s.E`K.3.qaoa0a0a0a0a0a0a0a0",
"a0a0a0a0a0a0a0a0.Qa..e.MaM#a`1`e.z`E`E.Y.Y`EaI.Y.z`E.I`I`I.T.q.q.P.q`I`I`I.z.I`E.z.Y#N#NaI`E.z.U.h.taB`s`F.A.oa0a0a0a0a0a0a0a0a0",
"a0a0a0a0a0a0a0a0aRaC.E.V#G`n.u.F`e.T`E`E.T.0`E.I.I`E.T.T.q`e.q.T`I.T.T`E.T`E.zaI`E.Y#N.Y#N`E`I`e`i.u.k.C`7`6`6.Qa0a0a0a0a0a0a0a0",
"a0a0a0a0a0a0a0a0a0.m.2`FaC`K`z`i.h.T.T`f.Y#N`faI#N#N.I.z.z.U.U.P.F.P.P.q.T`I.I#N`f`EaI.z`E.T`e`B.3`n.1`M.k`P.oa0a0a0a0a0a0a0a0a0",
"a0a0a0a0a0a0a0a0a0.l`5.1ax.1`n.u#3.q`e`E#N.Y`f`e`z.1az.S.L...1`g`Z`gaz.1.M.V`g`z`e`f`faI.T`e.h`i`z`K.M`Z.2.PaYa0a0a0a0a0a0a0a0a0",
"a0a0a0a0a0a0a0a0.m`K.P.#aC`M`K`n`i.h.z.T#3`z`Z`F`k`G`j`j.i.i.i.i.i.i.iaU`jaU`F..ax.M`z#3`E`E`B`1.k.1ax`K`w.3`M`Ra0a0a0a0a0a0a0a0",
"a0a0a0a0a0a0a0a0.MaC`5.F`Kax`g`n.u`zazaX`5`waC.1.#`5.bac`Facacacacacac`J`d.P.F`P`M`K`5`z.Caz.#`z.1`M`F.3.h`K.i`pa0a0a0a0a0a0a0a0",
"a0a0a0a0a0a0a0a0aY`M`0.h`1aCaC`g`g..`7aX.u`i.M`say.3.h`i`s.`.`ae`j.`ae.1.F.h.F.1`W`K.u..aX`x.t`M`MaC`n.P.2an#Sa0a0a0a0a0a0a0a0a0",
"a0a0a0a0a0a0a0a0a0aqaC`1.P`naU`g.3`w`q.P.#.Ja5.a`s.S.P.U.3.C`r`C.B.B`F`1.h.q..ae`s.D..`n.F.U.U.3.V`M.P`5`Z.La0a0a0a0a0a0a0a0a0a0",
"a0a0a0a0a0a0a0a0.Q.N`e`K.h.C.wax`n.3.P.q`1`g`W.a.5.5`g.u...D.aae.BaB.M`6.L.Cae.a.B`s`K`1.3.h`1.1`j``.L`K`g.Iaf.Qa0a0a0a0a0a0a0a0",
"a0a0a0a0a0a0.Q.W.h.P.I`8.M``.w`Max`W`Taq.m`7az.L.#aE#7`z.M`G.5.a.aaB`s.1`n.##7.u.L`7`uaY`S#5.w``.``````F`E#N.z.U`8.Qa0a0a0a0a0a0",
"a0a0a0a0.oa6.2.3.F.P.T#N`B`y.#.u.L.o.Q.7`F`P`1`5.F.P`q.3.k`s`r.B`rae`M.kay`5.P`q.F`1.kaC`la0.o#H`M`gaz`e.Y.Y`I.P.F.3#8`Ra0a0a0a0",
"a0a0.O`6`F`K.2`1`5.h.q`I#N#N`eada0a0a0.Q.G`Vamam.q.W`X#5`2.caaaaaaaa#q.OaW`V`V.W.v#8#`aq.Qa0a0a0ad#7.T.z.Y.I.q.h`5`1`P`K.eaYa0a0",
"a0a0ad#`.A.7`P.#aE.F.P`I`E#`.Qa0a0a0a0a0a0a0a0a0a0a0a0a0a0a0a0a0a0a0a0a0a0a0a0a0a0a0a0a0a0a0a0a0a0a0aW`X.Y`I.P.FaE`VaYaYaqa0a0a0",
"a0a0a0a0a0.QaP.2`1.3.h`l.Qa0a0a0a0a0a0a0a0a0a0a0a0a0a0a0a0a0a0a0a0a0a0a0a0a0a0a0a0a0a0a0a0a0a0a0a0a0a0a0aW.h.h.F.##8a0a0a0a0a0a0",
"a0a0a0a0a0.m`k.kaEaW.Qa0a0a0a0a0a0a0a0a0a0a0a0a0a0a0a0a0a0a0a0a0a0a0a0a0a0a0a0a0a0a0a0a0a0a0a0a0a0a0a0a0a0.Q`l.uay.k#8a0a0a0a0a0",
"a0a0a0a0ad`c`KaR.Qa0a0a0a0a0a0a0a0a0a0a0a0a0a0a0a0a0a0a0a0a0a0a0a0a0a0a0a0a0a0a0a0a0a0a0a0a0a0a0a0a0a0a0a0a0a0.Qa.`6`Gada0a0a0a0",
"a0a0a0aYaUa..Qa0a0a0a0a0a0a0a0a0a0a0a0a0a0a0a0a0a0a0a0a0a0a0a0a0a0a0a0a0a0a0a0a0a0a0a0a0a0a0a0a0a0a0a0a0a0a0a0a0a0.Q.A`s.oa0a0a0",
"a0a0aqaraqa0a0a0a0a0a0a0a0a0a0a0a0a0a0a0a0a0a0a0a0a0a0a0a0a0a0a0a0a0a0a0a0a0a0a0a0a0a0a0a0a0a0a0a0a0a0a0a0a0a0a0a0a0a0aq#F.Qa0a0"
};
