/* XPM */
static char *roco16_xpm[] = {
/* width height num_colors chars_per_pixel */
"    16    16      256            2",
/* colors */
"`` c #ffffff",
"`. c #fdfdfb",
"`# c #fefdfc",
"`a c #f8f4ea",
"`b c #fefdfa",
"`c c #fefefe",
"`d c #fcfaf7",
"`e c #faf7ee",
"`f c #fefefc",
"`g c #fdfdfc",
"`h c #e0cca9",
"`i c #e6d297",
"`j c #e3ce8c",
"`k c #fefdf9",
"`l c #fefefd",
"`m c #faf7f1",
"`n c #ecd690",
"`o c #ebd99d",
"`p c #faf0c6",
"`q c #e8dbc0",
"`r c #dac083",
"`s c #ecd885",
"`t c #f9f3dc",
"`u c #faf3d5",
"`v c #ead377",
"`w c #f7edb0",
"`x c #fbf4d7",
"`y c #fbfaf7",
"`z c #e3d1a9",
"`A c #e6cd75",
"`B c #eedf9e",
"`C c #efe5c1",
"`D c #f9f1c8",
"`E c #f9f5d3",
"`F c #fefefa",
"`G c #fcf8e7",
"`H c #faf4cd",
"`I c #f7f2d6",
"`J c #efdfa3",
"`K c #ead57c",
"`L c #fbf5d0",
"`M c #fefefb",
"`N c #f2ebdd",
"`O c #dec375",
"`P c #f4e7a6",
"`Q c #e9dca6",
"`R c #f3e480",
"`S c #f7e67c",
"`T c #f2e16b",
"`U c #f3ebac",
"`V c #fdfbf3",
"`W c #efd761",
"`X c #f9e172",
"`Y c #faf29e",
"`Z c #f8f3db",
"`0 c #ead489",
"`1 c #f1e195",
"`2 c #fdfbef",
"`3 c #ebdfc6",
"`4 c #dfc57d",
"`5 c #f0e1aa",
"`6 c #f3ed97",
"`7 c #f0eaa0",
"`8 c #f0e593",
".` c #f2e281",
".. c #eaddb1",
".# c #debd4d",
".a c #f1e5b3",
".b c #e5cf74",
".c c #fcfaed",
".d c #f2e2a5",
".e c #ebd580",
".f c #fcf8e2",
".g c #e9dcc2",
".h c #ecd692",
".i c #efe3be",
".j c #eee17b",
".k c #f4ecb4",
".l c #f5eec1",
".m c #f0dd77",
".n c #dfce9b",
".o c #c19e47",
".p c #ebe0c4",
".q c #fdfcf9",
".r c #f9eebb",
".s c #e7ce6d",
".t c #faf5db",
".u c #eddfc1",
".v c #efdb9d",
".w c #f2e6c7",
".x c #edd979",
".y c #efdc7a",
".z c #eedb77",
".A c #f1e18c",
".B c #e2d2a1",
".C c #c19e45",
".D c #fcfaf5",
".E c #f5e7b1",
".F c #e9d279",
".G c #f7eecc",
".H c #faf4dc",
".I c #eedb99",
".J c #f1e2b9",
".K c #eed880",
".L c #f2d86f",
".M c #f1db6f",
".N c #f8f1ca",
".O c #e7dab3",
".P c #bc963c",
".Q c #e0d0a4",
".R c #f8f3e8",
".S c #f0e1a6",
".T c #e8d176",
".U c #f9f4de",
".V c #fdfaec",
".W c #f3e4aa",
".X c #eddaa2",
".Y c #fdfbf5",
".Z c #f5e6a0",
".0 c #e9d47d",
".1 c #ead16a",
".2 c #f3e39a",
".3 c #e3d4a9",
".4 c #ba9039",
".5 c #ceb373",
".6 c #c19e4d",
".7 c #ece2c7",
".8 c #e7d395",
"#` c #e4cc7b",
"#. c #fdfbee",
"## c #f6edc2",
"#a c #e9d290",
"#b c #f4ebcd",
"#c c #e8d89c",
"#d c #e9d066",
"#e c #e6d37b",
"#f c #eed156",
"#g c #d7c27e",
"#h c #c6a869",
"#i c #b58b33",
"#j c #c2a052",
"#k c #e6d3a3",
"#l c #e7d290",
"#m c #e5d4a0",
"#n c #fdfae6",
"#o c #f0e1ae",
"#p c #ecd699",
"#q c #f4e9c8",
"#r c #fdfbf4",
"#s c #fdfbf2",
"#t c #fcf8e6",
"#u c #faf8f1",
"#v c #fdfcfa",
"#w c #fbf8f2",
"#x c #ebddb3",
"#y c #ecd99b",
"#z c #dec691",
"#A c #f9f3e1",
"#B c #faf4d0",
"#C c #e7d193",
"#D c #eed89b",
"#E c #f7edcd",
"#F c #f0e1b8",
"#G c #ead496",
"#H c #dfc78c",
"#I c #ebdab4",
"#J c #fbf5d1",
"#K c #e8d499",
"#L c #dec27c",
"#M c #f4ecd8",
"#N c #fcfbf7",
"#O c #f3eacf",
"#P c #e0c680",
"#Q c #e3cc95",
"#R c #f2e5c0",
"#S c #faf5e0",
"#T c #f4ebd1",
"#U c #f6edd6",
"#V c #e7d6af",
"#W c #ecddb7",
"#X c #f7f1df",
"#Y c #f9f2d5",
"#Z c #f5edd7",
"#0 c #000000",
"#1 c #000000",
"#2 c #000000",
"#3 c #000000",
"#4 c #000000",
"#5 c #000000",
"#6 c #000000",
"#7 c #000000",
"#8 c #000000",
"a` c #000000",
"a. c #000000",
"a# c #000000",
"aa c #000000",
"ab c #000000",
"ac c #000000",
"ad c #000000",
"ae c #000000",
"af c #000000",
"ag c #000000",
"ah c #000000",
"ai c #000000",
"aj c #000000",
"ak c #000000",
"al c #000000",
"am c #000000",
"an c #000000",
"ao c #000000",
"ap c #000000",
"aq c #000000",
"ar c #000000",
"as c #000000",
"at c #000000",
"au c #000000",
"av c #000000",
"aw c #000000",
"ax c #000000",
"ay c #000000",
"az c #000000",
"aA c #000000",
"aB c #000000",
"aC c #000000",
"aD c #000000",
"aE c #000000",
"aF c #000000",
"aG c #000000",
"aH c #000000",
"aI c #000000",
"aJ c #000000",
"aK c #000000",
"aL c #000000",
"aM c #000000",
"aN c #000000",
"aO c #000000",
"aP c #000000",
"aQ c #000000",
"aR c #000000",
"aS c #000000",
"aT c #000000",
"aU c #000000",
"aV c #000000",
"aW c #000000",
"aX c #000000",
"aY c #000000",
"aZ c #000000",
"a0 c #000000",
"a1 c #000000",
"a2 c #000000",
"a3 c #000000",
"a4 c #000000",
"a5 c #000000",
"a6 c #000000",
"a7 c #000000",
"a8 c #000000",
/* pixels */
"`````.`#`a`b```c`c```d`e`f`#````",
"`g```h`i`j`k`l`c`c```m`n`o`p```l",
"```q`r`s`t```l`c`c`l```u`v`w`x``",
"`y`z`A`B`C`D`E`F```G`H`I`J`K`L`M",
"`N`O`P`Q`R`S`T`U`V`W`X`Y`Z`0`1`2",
"`3`4`5```6`7`8.`...#.a.b.c.d.e.f",
".g.h.i``.j.k.l.m.n.o`#.p.q.r.s.t",
".u.v.w``.x.y.z.A.B.C.D`l``.E.F.G",
".H.I.J``.K.L.M.N.O.P`c.Q.R.S.T.U",
".V.W.X.Y.Z.0.1.2.3.4.5.6.7.8#`#.",
"`c###a#b#c#d#e#f#g#h#i#j#k#l#m``",
"``#n#o#p#q#r#s#t#u#v#w#x#y#z#A``",
"```l#B#C#D#E```c```##F#G#H#I````",
"`c```l#J#K#L#M#N`b#O#P#Q#R```c``",
"```c`l``#S#T#U#V#W#X#Y#Z```l````",
"```````c`c```l`l`l`l```c`c``````"
};
