/* XPM */
static char *roco64_xpm[] = {
/* width height num_colors chars_per_pixel */
"    64    64      256            2",
/* colors */
"`` c #9c6e1c",
"`. c #ccba54",
"`# c #e4e27c",
"`a c #d4be8c",
"`b c #e4e2b4",
"`c c #c49628",
"`d c #dcce60",
"`e c #f4f28e",
"`f c #bcae4c",
"`g c #f4f2c4",
"`h c #e4de9c",
"`i c #e4ba44",
"`j c #dcd08c",
"`k c #f4d258",
"`l c #cc9e2f",
"`m c #dcd2ac",
"`n c #f4ea8f",
"`o c #eceabc",
"`p c #bcaa64",
"`q c #ccba6c",
"`r c #dcce79",
"`s c #b4994c",
"`t c #f4f2e1",
"`u c #a48624",
"`v c #ecce8c",
"`w c #f4ea77",
"`x c #bc8a24",
"`y c #f4de93",
"`z c #e4be6c",
"`A c #f4de63",
"`B c #bca24d",
"`C c #ecdecc",
"`D c #d4ac43",
"`E c #dcc871",
"`F c #ac8e3c",
"`G c #f4e075",
"`H c #dcd674",
"`I c #e4d664",
"`J c #f4f29c",
"`K c #fcfbb8",
"`L c #f4ecd9",
"`M c #dcd690",
"`N c #d4b267",
"`O c #fcfbe0",
"`P c #dcc650",
"`Q c #f4eba9",
"`R c #f4e5a8",
"`S c #dcbc6e",
"`T c #b48529",
"`U c #d4b44a",
"`V c #d4c994",
"`W c #f4e4ba",
"`X c #c4a244",
"`Y c #ecd058",
"`Z c #fcedb7",
"`0 c #ecd17b",
"`1 c #ecd892",
"`2 c #e4c954",
"`3 c #bc973f",
"`4 c #cca54c",
"`5 c #e4d8b1",
"`6 c #f4e676",
"`7 c #f4da74",
"`8 c #f4e693",
".` c #bca45c",
".. c #dcbb49",
".# c #e4c871",
".a c #fcfc9f",
".b c #e4ca91",
".c c #ecd8a2",
".d c #f4f2d4",
".e c #dccfa2",
".f c #fcec8f",
".g c #c4b26c",
".h c #e4d07a",
".i c #c4994c",
".j c #dcbc60",
".k c #ece6ba",
".l c #ececc4",
".m c #f4f3ec",
".n c #bc903d",
".o c #dcc271",
".p c #bc9e44",
".q c #e4d8bd",
".r c #ece6ac",
".s c #f4da61",
".t c #fce176",
".u c #fcfbd0",
".v c #fcfefc",
".w c #b48940",
".x c #d4b358",
".y c #d4ca9c",
".z c #e4c880",
".A c #e4d05f",
".B c #fcfa94",
".C c #e4dfa5",
".D c #cca63a",
".E c #fcec79",
".F c #f4e66c",
".G c #dcd6a4",
".H c #d4b67e",
".I c #e4c862",
".J c #ece0b7",
".K c #fcf389",
".L c #ac8244",
".M c #fce094",
".N c #c4a34e",
".O c #ece6cf",
".P c #d4ab58",
".Q c #fceca7",
".R c #ecd066",
".S c #f4d88e",
".T c #c49943",
".U c #c4b65c",
".V c #fcf4b7",
".W c #e4c252",
".X c #ccab69",
".Y c #ccbc84",
".Z c #b49e4c",
".0 c #fcf5e1",
".1 c #fcdf6a",
".2 c #d4c67c",
".3 c #ac9144",
".4 c #fcf4a1",
".5 c #d4b66a",
".6 c #d4c661",
".7 c #dcbd7e",
".8 c #b48a32",
"#` c #ecd9ae",
"#. c #ac7d2a",
"## c #ccab52",
"#a c #ecd87a",
"#b c #ac8a2c",
"#c c #bc9234",
"#d c #a4761c",
"#e c #dcc254",
"#f c #c49e4f",
"#g c #e4be5c",
"#h c #f4d66a",
"#i c #cca13e",
"#j c #ecd2a4",
"#k c #fcedc6",
"#l c #cca45e",
"#m c #ecde78",
"#n c #dcc290",
"#o c #c4ad5c",
"#p c #ac842a",
"#q c #b48f33",
"#r c #dcb63f",
"#s c #ccb26e",
"#t c #dcc25e",
"#u c #ac8a3c",
"#v c #dcc27f",
"#w c #fce678",
"#x c #fce690",
"#y c #fcda5c",
"#z c #f4e6ce",
"#A c #dcb664",
"#B c #c49224",
"#C c #a47214",
"#D c #ecde96",
"#E c #e4ce91",
"#F c #e4d1ad",
"#G c #f4ebb9",
"#H c #c4ac68",
"#I c #ecd869",
"#J c #fce6a7",
"#K c #dcc891",
"#L c #ecc64c",
"#M c #c4a560",
"#N c #ecca6c",
"#O c #f4daa4",
"#P c #fcf4d0",
"#Q c #e4d1a0",
"#R c #f4ebc8",
"#S c #fcf6ee",
"#T c #ecdabc",
"#U c #dcb654",
"#V c #dcc99d",
"#W c #ecca7c",
"#X c #ecdfa8",
"#Y c #e4d7a1",
"#Z c #ecca5f",
"#0 c #d4bc80",
"#1 c #b48e4c",
"#2 c #dcca60",
"#3 c #e4dec4",
"#4 c #c49834",
"#5 c #dcce6c",
"#6 c #f4ec9c",
"#7 c #dcd184",
"#8 c #bc984c",
"a` c #bc8c34",
"a. c #f4e09c",
"a# c #e4c27c",
"aa c #f4e06c",
"ab c #d4ad4c",
"ac c #f4e184",
"ad c #fcfcc4",
"ae c #f4eee4",
"af c #fcfaec",
"ag c #b48634",
"ah c #f4e4c4",
"ai c #ecd184",
"aj c #f4da84",
"ak c #dcbc54",
"al c #fcfbac",
"am c #fceb9c",
"an c #e4cf84",
"ao c #bc8e4c",
"ap c #e4ce6c",
"aq c #fced84",
"ar c #ece1c4",
"as c #fcf294",
"at c #fcf4c4",
"au c #ccae74",
"av c #fcf3ac",
"aw c #ccaa5c",
"ax c #ecd684",
"ay c #ece284",
"az c #ac8634",
"aA c #b48e3c",
"aB c #ccb57c",
"aC c #d4ba71",
"aD c #e4d68e",
"aE c #c49e43",
"aF c #d4a63c",
"aG c #bc9e4e",
"aH c #dcc680",
"aI c #f4ea84",
"aJ c #dcd684",
"aK c #f4e684",
"aL c #f4e69c",
"aM c #e4ca9c",
"aN c #ece6c4",
"aO c #f4da6c",
"aP c #fce66c",
"aQ c #ece6dc",
"aR c #e4c25c",
"aS c #d4b674",
"aT c #c49e5c",
"aU c #dcc29c",
"aV c #dcb64c",
"aW c #fce69c",
"aX c #dcd25c",
"aY c #e4be48",
"aZ c #f4d657",
"a0 c #f4ee8f",
"a1 c #dcd279",
"a2 c #f4f6e4",
"a3 c #ecd291",
"a4 c #bc8e2c",
"a5 c #f4e290",
"a6 c #e4c274",
"a7 c #bca650",
"a8 c #ece2ce",
/* pixels */
".v.v.v.v.v.v.v.v.v.v.v.v.v.v.v.v.v.v.v.v.v.v.v.v.v.v.v.v.v.v.v.v.v.v.v.v.v.v.v.v.v.v.v.v.v.v.v.v.v.v.v.v.v.v.v.v.v.v.v.v.v.v.v.v",
".v.v.v.v.v.v.v.v.v.v.v.v.v.v.v.v.v.v.v.v.v.v.v.v.v.v.v.v.v.v.v.v.v.v.v.v.v.v.v.v.v.v.v.v.v.v.v.v.v.v.v.v.v.v.v.v.v.v.v.v.v.v.v.v",
".v.v.v.v.v.v.v.v.v.v.v.v.v.v.v.v.v.vafah.m.v.v.v.v.v.v.v.v.v.v.v.v.v.v.v.v.v.v.v.v.v.v`C#z#S.v.v.v.v.v.v.v.v.v.v.v.v.v.v.v.v.v.v",
".v.v.v.v.v.v.v.v.v.v.v#F#n.v.v.v`L.7aga``W.v.v.v.v.v.v.v.v.v.v.v.v.v.v.v.v.v.v.v.v.v.v`N`3`D.c.v.v.v.v`0.0.v.v.v.v.v.v.v.v.v.v.v",
".v.v.v.v.v.v.v.v.v.v`Lag#8.v.v.0.D#C#.#faf.v.v.v.v.v.v.v.v.v.v.v.v.v.v.v.v.v.v.v.v.v.v#R#e`Y.1ac.v.vah`kam.v.v.v.v.v.v.v.v.v.v.v",
".v.v.v.v.v.v.v.v.v.v#n.8aA.0.v.f`Y`T#..q.v.v.v.v.v.v.v.v.v.v.v.v.v.v.v.v.v.v.v.v.v.v.v.v.c.W#h.sat.v#Q.I`G`O.v.v.v.v.v.v.v.v.v.v",
".v.v.v.v.v.v.v.v.v.v#f.8.8ae.J.f.s.I#R.v.v.v.v.v.v.v.v.v.v.v.v.v.v.v.v.v.v.v.v.v.v.v.v.v.v`W.R`A.4af#V#gaa`Z.v.v.v.v.v.v.v.v.v.v",
".v.v.v.v.v.v.vaf.v#S.i`T.iae.J#P`O.v.v.v.v.v.v.v.v.v.v.v.v.v.v.v.v.v.v.v.v.v.v.v.v.v.v.v.v.vaf#P#Ga8.q`D`n.Q.v.v.v.v.v.v.v.v.v.v",
".v.v.v.v.v.v.v.X`L.vao#c.z.c`Rad.VaW#P.v.v.v.v.v.v.v.v.v.v.v.v.v.v.v.v.v.v.v.v.v.v.v.v.v.v#n#0.M#6#O#Y#A.a`Z.v`Z.Q.v.v.v.v.v.v.v",
".v.v.v.v.v.v`C.8`a.vaS.#.j#ia0`K`8aR#z.v.v.v.v.v.v.v.v.v.v.v.v.v.v.v.v.v.v.v.v.v.v.v.v.v.v#J#r#y.K`8#c.R.a#P.v.1ac.v.v.v.v.v.v.v",
".v.v.v.v.v.v#n`T#f.v#R.f#c#r.aas.x.O.v.v.v.v.v.v.v.v.v.v.v.v.v.v.v.v.v.v.v.v.v.v.v.v.v.v.v.vataP.Kak`x.1.4.v`O.R.R.0.v.v.v.v.v.v",
".v.v.v.v.v.vau`T.w.0#R#`.H`8av`Raf.v.v.v.v.v.v.v.v.v.v.v.v.v.v.v.v.v.v.v.v.v.v.v.v.v.v.v.v.v.vaf`K`y`E.Qadafadabab.0.v.v.v.v.v.v",
".v.v.v.v.v.v.XagaE.c.Jah`Samav.v.v.v.v.v.v.v.v.v.v.v.v.v.v.v.v.v.v.v.v.v.v.v.v.v.v.v.v.v.v.v.v.v.0`8.S.Q`O.u`Q.TaK.u.v.v.v.v.v.v",
".v.v.v.v.v.v#K.jaR#l`8#waY.K`W.v.v.v.v.v.v.v.v.v.v.v.v.v.v.v.v.v.v.v.v.v.v.v.v.v.v.v.v.v.v.v.v.v.v`NaF.sac.f`S`P`K`O.v.v.v.v.v.v",
".v.v.v`5.q.v`Lac`3`c.K.a.Ka5`5#Y#`#X`5#Q`o`W`o`R.k#G#S.v.v.v.v.v.v.v.v.v.v.v.vaf#R#X.k#G#R#R#G.rafaf.j#I`Dap`c#w.V.v.vataf.v.v.v",
".v.v.v.H.n#z.v.c#d#r.B#6.cafa7.#`6#tak.W.s#I#maaaa`I`Ia1.d.v.v.v.v.v.v.v.vafan`2`Y#h#h`na0`Jasay`o.v`O.#`Y`U`l.K#P.v.u.f.0.v.v.v",
".v.v.v.X#.au.v#`.X`Rad`W.vaf#q.A.W.f.B#w`G.1`G.F`6.E`waPaX#G.v.v.v.v.v.v#P#e.s#y.1aa.1.4.4.4.a.f`5.v.v#z`Z#X.c.4.vafal#N.J.v.v.v",
".v.v.v#M`4`.`L`v.0.Qas`E.v.0`d#i#iaqas.f`6.taa`Gaaaa.F`6.E`d.d.v.v.v.vaf.6.1`A`A`A.1aO.f.4.4.4#6`o.v.v.J.D.##R.u#k.u.h#i#G.v.v.v",
".v.v.v#K#x.R.7#Dal.K#waC.v#S`uaF#w.f.Kas`e`w.taa.1`G.F.Faa`w`r.v.v.v.vaD.saa`A#y.s.1`7.f.Q.4.4`n#R.v.v.vaO`D#h.z#Q.4#iac.u.v.v.v",
".v.v.v#R`8aA#4aqal`8#m`O.v.v#YaJ.4.K`eas`e.f`w`G`6aa`6.F`G.E.A.0.v.vaf#t`A.s.s.saOaO.1ac.f.fam`n`o.v.v.v.u.E#e#iac`U.I.a.v.v.v.v",
".v.v.v.v`1``.T.EacaA#R.v.v.v.v.0a1.4`na0a0`eaIaa.F`waa`6aa`G#m#D.v.v.J...saZaZ#h.s.s#h`Aaaaa`6`G.k.v.v.v.v#n...a.h`c.Kat.v.v.v.v",
".v.q.5af#S.w#i`G`Q`5#P.v.v.v.v.v`M.4.faIa0ay`j`h`M`d`6aa.Faa.F#7.v.v#0ab#LaZaZaZ`2`MaD`j.I.1`G#h`o.v.v.v.v.c.c.BaE`iav.v`O.4.v.v",
".v#F#f.zaf.O#E.0at##a#.v.v.v.v.v.Ca0a0a0as`Ha2.v.v#RaX`6`Gaa`G`r.v.v#H#####r.....J.v.v.v`bak#h#I.k.v.v.v.v.1#y#Parac.v.J.B`0.v.v",
".v`C#..TaM#R#P#k.ha4at.v.v.v.v.v`ba0.4a0.EaX`O.v.v.v.6#w`G#maa`d.v.vaG.T`X`X`4`Baf.v.v.vaf`Bab`U.J.v.v.v.v`K.K.s#P#G.J.t#g.I.v.v",
".v#S.waA.i#n`Z#6.#.R.0.v.v.v.v.v.Cac`w`6`6.Aa2.v.v.v#7`Gaaaa`G#2af.v.3`X`4aE.N#o.v.v.v.v.v.``4aE#Y.v.v.v.v`W.B#wa5#K`y.I#t`K.v.v",
".v.v#n.i.ia6.Q`S`S#Q.v.v.v.v.v.v.C`A`Gaa`w.A.0.v.v.van`G#maO`G#2af.v`s`4`X`4#i#H.v.v.v.v.v`V#s.g.O.v.v.v.vaf`7aZ.Iav.I`D.K#P.v.v",
".v.vaf.c`0.S.4`1#X#z.v.v.v.v.v.v#Y`6`Gaa`w`d.0.v.v.v`r`GaaaO`G`d.v.v`B`4.N.N`4#o.v.v.v.v.v.v.v.v.v.v.v.v.v.v#J#w`G`H#B.E`R.v.v.v",
".vae.vafat#x.Q#P#Q.L.v.v.v.v.v.v.CaK`6aa`6.Aa2.v.v.v.6.t#aaa`G`E.v.v#8`4`X#i.N#o.v.v.v.v.v.v.v.v.v.v.v.v.v.u.t.V.Q#c#L`Q.v.vaf.v",
".v#fau.0.v.u.0`O#l`S.v.v.v.v.v.v#Y#a`G#I`G`d.0.v.v.J.R`Gaa#a.1`E.v.v`F.n`X.N`X#o.v.v.v.v.v.v.v.v.v.v.v.v.v#kaq.K#S.b#G.v`W.E`Z.v",
".vaT#..i`L#kafava..Qaf.v.v.v.v.v#Y#h`7`7aa#I`E.h#5.A`GaOaO`G`G`M.v.v.3#faEaE`4#M.v.v.v.v.v.v.v.v.v.v.v.v.v#T#a.aam#G.J.c`G#g#P.v",
".v#T#f.n.X#Va.`v`y#n.v.v.v.v.v.v#Y#IaO`7aO`Gaa`G`G`G`G#I`G`7#I.k.vaf#8##`X.N#i#H.v.v.v.v.v.v.v.v.v.v.v.v.vaf.s.K#I#Da..R`U`waf.v",
".vaf#J.S#Na#.S.#`y#T.v.v.v.v.v.v#Y#h`7#I`7aO#maaaO`7aa`7#I`G`Paf.v.v#8`4#i.N`4#o.v.v.v.v.v.v.v.v.v.v.v.v.v.0aW.K#aam.I.Daca3.v.v",
".v.v.0.Q.Q#xamaL#T`N`O.v.v.v.v.vaD#h`7`7`7aOaO`7#maO#aaa`G`7#Y.v.v.v`s.w.n`XaE#M.v.v.v.v.v.v.v.v.v.v.v.v.v.t.Q.4ac.j`c.K#2.0.v.v",
".v.v.vaf.u.Vam#P#Fan`O.v.v.v.v.v#Y#I#h`7aO#aaO#IaaaaaO`7`G.6af.v.v.v`Fag`3aE.Ta7.v.v.v.v.v.e#s.gar.v.v.vafab.E`Oa.`xaa#D#S.v.v.v",
".vaf`W`L.v`O#P.v`1ai.b.v.v.v.v.v#Y`7`7#h`7aO`G`7#h#aaa`G#2`t.v.v.v.v#u.T.N`X.N.N.v.v.v.v.v.``4aE.e.v.v.v#z#i.aadaf.h`taf#R#P.v.v",
".vaf`G`0`N#S#P#Pai.j.X.v.v.v.v.v`5a5`7`7`7.R#t#I`7`7aO`G.A#R.v.v.v.v`s`4`X#i`4`Baf.v.v.v.v`B`4`X`m.v.v.vae#A.KaW.V#O.O.#.ja..v.v",
".v.vatac###laS#Qa5#DaM.v.v.v.v.v.C`ya5#h`7.A.O.2.1#aaO`7aa#7.v.v.v.v`p#f`3`3.T.n`5.v.v.v`C`3.T`3#Q.v.v.v.q`S.faD`1a5#raV`G`O.v.v",
".v.v.v.Q`Kam`0`z.M#Q.bad.v.v.v.v`5`8a5`y`7#Z`L#X.R`7aO#aaa.I#R.v.v.v#0a`.8ag.n.8aAaB#0.Y.p#c.n#c#V.v.v`Lao#Vac#a..`l.A.A.z.v.v.v",
".v.v.vaf.Vad.Vam.M`W#E.u`L.v.v.v.JaL#xa5`7`7aDaf.6`7#h`7#h`A`P#z.v.v`5#8#i`3.na`#q.8`3aE#i.n.n`3#V.v.v.ba##G.V##`T`Aac#l#S.v.v.v",
".v.v.v.v.v#P.V.V#P`O.S.P#F.v.v.v.G#6aLa5`y`7.R`j.U`7#haO#IaZ.s`2`q#K`m`BaE.na`.n#baz.T.T#8.n#8a`.e.v.v.X.V.u.v.x.x`E#Vaf.v.v.v.v",
".v.v.v.v.v.v.v`O#`#z`y#f#Q.v.v.v#V.Q.Q#xa5#h#h.t`f#2`7#h#haZaZaZ#r.N.e.Ya`.8.n.8#paz`3#i.n.8a`.n#V.v#S`z`Ka.#RaH.m.v.v.v.v.v.v.v",
".v.v.v`O.V#j.7#z.H`5`Kan.c`O.v.v#Y.Vamai#a#h#I#h`j.2.1.R.s`Y`Y`A..`X.e`t#ba`#q.8#p#p.n`4.n#qag`3`m.v#V`v`K.c.7`5#z.X`Sav.v.v.v.v",
".v.v.v.v.Vax#7`S`N#l.oa..J.u#z.v.Jada..j#N.saOaOaDar`YaO.s.s`Y#y.W#i`V.v.q`ua`.8`T.8.n###q.n#8aE`5.b.z`Z.V`0`Saw.naG.x#R.v.v.v.v",
".v.v.v.v.v.uadad`KaW#N#jatam.7.v`b`haw#8.I.R`Y.R`M.v`.`k`Y`YaY..#r.p#K.v.v.OaGaz.8.8#qaE`3#8#D`E#H`S.u`O`Q#4aw.Ma5#1.b.v.v.v.v.v",
".v.v.v.v.v.vat.Q.V.Q`R#P#R.P.n.0afaN`m`5ah`o#R.k.0.v#P.k`W`o.k#X`b`5`t.v.v.v.v`t.q`m`m`5`5.k`L.q#M.M.Vaf#G.z`1aH.w#Q.v.v.v.v.v.v",
".v.v.v.v.v.v.vaf`O#k#`#Vah.4`z#k.u.0.v.v.v.v.v.v.v.v.v.v.v.v.v.v.v.v.v.v.v.v.v.v.v.v.v.v.v.vah#n.7ava.#T#Ear#F#F#S.v.v.v.v.v.v.v",
".v.v.v.v.v.v.v.v.v.v.v.J.b`Zam#kada3`t.v.v.v.v.v.v.v.v.v.v.v.v.v.v.v.v.v.v.v.v.v.v.v.v.v.v#`.z`g`v.V`N#M#R.v.v.v.v.v.v.v.v.v.v.v",
".v.v.v.v.v.v.v`Z`y#v`SaM#l.n`S#P.V`y#O.v.v.v.v.v.v.v.v.v.v.v.v.v.v.v.v.v.v.v.v.v.v.v.v.vae.P.V#P.u`1aA.7aM`N#va3#T.v.v.v.v.v.v.v",
".v.v.v.v.v.v.v#P#6`Kad.V.Vam.zaf`v.SaW.0#P.0.v.v.v.v.v.v.v.v.v.v.v.v.v.v.v.v.v.v.v.v`L#`#na3aL`W`OaC`N.Sav`y.Nag#T.v.v.v.v.v.v.v",
".v.v.v.v.v.v.v.v`O.V.Vam`0.5.5ar.uax`R#P`Ka3#k.v.v.v.v.v.v.v.v.v.v.v.v.v.v.v.v.v.v#jan#P.7.Q.##z#Y`Ka3.5.i#.aT`L.v.v.v.v.v.v.v.v",
".v.v.v.v.v.v.v.v.v.v#P#k#`.Oaf.b#n`N.5#P.V.S.Qaf.v.v.v.v.v.v.v.v.v.v.v.v.v.v.v.v`5`z.V`W`Z`R`S.H#Q#S.q#n#Qar.v.v.v.v.v.v.v.v.v.v",
".v.v.v.v.v.v.v.v.v.v.v.vaf`W#Y#Q`S.x.P`t`W.T.Q#P.v.v.v.v.v.v.v.v.v.v.v.v.v.v.v#S.iav.5`L`Z`N`3a##`#j.J.v.v.v.v.v.v.v.v.v.v.v.v.v",
".v.v.v.v.v.v.v.v.v.v.v#P.V.Vav.Q.Q#J.z#n`t.zaC.V.v.v.v.v.v.v.v.v.v.v.v.v.v.v.v#F`1.S#v`LaH`K#J.Qa.aH.n`Naf.v.v.v.v.v.v.v.v.v.v.v",
".v.v.v.v.v.v.v.v.v.v.v.vatav.Qajab.n#K#E#E`N.n.Xaf.v.v.v.v.v.v.v.v.v.v.v.v.v.v#`a.#f#MaT#V#Q.na`.8ag#fah.v.v.v.v.v.v.v.v.v.v.v.v",
".v.v.v.v.v.v.v.v.v.v.v.v.v.v#P`g#Paf.v.0aMa6.z.#ah.v.v.v.v.v.v.v.v.v.v.v.v.v.v#Ean`N#vah#S.v#S#k#R#kaf.v.v.v.v.v.v.v.v.v.v.v.v.v",
".v.v.v.v.v.v.v.v.v.v.v.v.v.v.v.v.v`O`Ra.`RaL.z#f#1aw#Qah.v.v.v.v.v.v.v#S#TaB.i.S.u.4.QaL`1a#.m.v.v.v.v.v.v.v.v.v.v.v.v.v.v.v.v.v",
".v.v.v.v.v.v.v.v.v.v.v.v.v.v.v.v#P.Q`R.Tagagag#Qaf#zaW`7.S#Qahae`L#`#nag#1.b.0.v.u#xaR.naga``Naf.v.v.v.v.v.v.v.v.v.v.v.v.v.v.v.v",
".v.v.v.v.v.v.v.v.v.v.v.v.v.v.v.v.v.0`R#Ea3#j`L.v.v.v.v.v.0#K.w.n#Aax`Waf.v.v.v.v.v`O`Qa6a##Q`L.v.v.v.v.v.v.v.v.v.v.v.v.v.v.v.v.v",
".v.v.v.v.v.v.v.v.v.v.v.v.v.v.v.v.v.v.v.v.v.v.v.v.v.v.vaf#n#..H.O#R.V#Jah.v.v.v.v.v.v.v.v.v.v.v.v.v.v.v.v.v.v.v.v.v.v.v.v.v.v.v.v",
".v.v.v.v.v.v.v.v.v.v.v.v.v.v.v.v.v.v.v.v.v.v.v.v.v.v#k#D`N.O.v.v.v.v`g`v`Saf.v.v.v.v.v.v.v.v.v.v.v.v.v.v.v.v.v.v.v.v.v.v.v.v.v.v",
".v.v.v.v.v.v.v.v.v.v.v.v.v.v.v.v.v.v.v.v.v.v.v.v.v.v`t#Fae.v.v.v.v.v.v#SaUae.v.v.v.v.v.v.v.v.v.v.v.v.v.v.v.v.v.v.v.v.v.v.v.v.v.v",
".v.v.v.v.v.v.v.v.v.v.v.v.v.v.v.v.v.v.v.v.v.v.v.v.v.v.v.v.v.v.v.v.v.v.v.v.v.v.v.v.v.v.v.v.v.v.v.v.v.v.v.v.v.v.v.v.v.v.v.v.v.v.v.v",
".v.v.v.v.v.v.v.v.v.v.v.v.v.v.v.v.v.v.v.v.v.v.v.v.v.v.v.v.v.v.v.v.v.v.v.v.v.v.v.v.v.v.v.v.v.v.v.v.v.v.v.v.v.v.v.v.v.v.v.v.v.v.v.v",
".v.v.v.v.v.v.v.v.v.v.v.v.v.v.v.v.v.v.v.v.v.v.v.v.v.v.v.v.v.v.v.v.v.v.v.v.v.v.v.v.v.v.v.v.v.v.v.v.v.v.v.v.v.v.v.v.v.v.v.v.v.v.v.v"
};
