/* XPM */
static char *roco32_xpm[] = {
/* width height num_colors chars_per_pixel */
"    32    32      256            2",
/* colors */
"`` c #ac862c",
"`. c #e4ca4c",
"`# c #e4d6ac",
"`a c #f4e274",
"`b c #dcc67c",
"`c c #c4a654",
"`d c #f4eebc",
"`e c #d4b65c",
"`f c #e4d67c",
"`g c #f4eedc",
"`h c #e4d66c",
"`i c #ece2ac",
"`j c #f4ee8c",
"`k c #ccba7c",
"`l c #e4d694",
"`m c #c4962c",
"`n c #ece28c",
"`o c #ece2c4",
"`p c #ccaa64",
"`q c #dcc694",
"`r c #f4eec4",
"`s c #fcfadc",
"`t c #dcc66c",
"`u c #f4d654",
"`v c #bc964c",
"`w c #f4da94",
"`x c #fce28c",
"`y c #ccae44",
"`z c #dcbe54",
"`A c #dcba74",
"`B c #e4ce64",
"`C c #f4de7c",
"`D c #fceaac",
"`E c #f4deac",
"`F c #ecdeac",
"`G c #e4de7c",
"`H c #f4eaac",
"`I c #ecea8c",
"`J c #e4ce7c",
"`K c #fcf6dc",
"`L c #ecde94",
"`M c #f4d66c",
"`N c #fcf6b4",
"`O c #d4ba64",
"`P c #f4e2ac",
"`Q c #fcf6c4",
"`R c #b48e34",
"`S c #fcea7c",
"`T c #d4aa4c",
"`U c #fcf694",
"`V c #bc9e3c",
"`W c #ecead4",
"`X c #e4ce94",
"`Y c #fcfaf4",
"`Z c #ecd6ac",
"`0 c #cca64c",
"`1 c #ecd67c",
"`2 c #ecd664",
"`3 c #ecd69c",
"`4 c #ece2a4",
"`5 c #bc9e4c",
"`6 c #dcc28c",
"`7 c #ecce6c",
"`8 c #f4e284",
".` c #fcf2dc",
".. c #f4eea4",
".# c #d4be7c",
".a c #ccb264",
".b c #e4c664",
".c c #e4c67c",
".d c #fceeac",
".e c #bc963c",
".f c #fcf2c4",
".g c #f4de64",
".h c #d4ae44",
".i c #dcc274",
".j c #dcb664",
".k c #f4e2bc",
".l c #b48e44",
".m c #e4c674",
".n c #f4f2ec",
".o c #f4e6c4",
".p c #e4ca94",
".q c #fcfaec",
".r c #f4dea4",
".s c #e4be54",
".t c #ecd28c",
".u c #f4de6c",
".v c #ecd68c",
".w c #ecd674",
".x c #f4e2a4",
".y c #cca24c",
".z c #fceebc",
".A c #c4963c",
".B c #ecd25c",
".C c #e4dabc",
".D c #fce674",
".E c #c4aa54",
".F c #dcba4c",
".G c #f4f2dc",
".H c #ece6ac",
".I c #e4d6a4",
".J c #fcfedc",
".K c #f4da64",
".L c #f4de94",
".M c #fcea94",
".N c #e4ce74",
".O c #ecdebc",
".P c #ecde84",
".Q c #f4eaa0",
".R c #e4ce8c",
".S c #fcf6ed",
".T c #fcf6bc",
".U c #f4e6ae",
".V c #fcf6d4",
".W c #f4eac9",
".X c #e4d2a4",
".Y c #fcfefc",
".Z c #ecdabc",
".0 c #cca65c",
".1 c #ecd6a4",
".2 c #c4a260",
".3 c #ecd274",
".4 c #fceea4",
".5 c #d4be84",
".6 c #d4b267",
".7 c #e4ca69",
".8 c #dcba69",
"#` c #b48a34",
"#. c #cca234",
"## c #d4c26c",
"#a c #d4b674",
"#b c #fcf292",
"#c c #bc8e3c",
"#d c #c4a254",
"#e c #fce27c",
"#f c #bc9244",
"#g c #e4c65c",
"#h c #dcc68c",
"#i c #ece6d4",
"#j c #dcc6a4",
"#k c #c49a4c",
"#l c #fce69c",
"#m c #ccae54",
"#n c #d4ba84",
"#o c #f4e28c",
"#p c #c49e44",
"#q c #e4c274",
"#r c #e4d68c",
"#s c #f4eed4",
"#t c #f4ea8c",
"#u c #ecdea4",
"#v c #fcf2d4",
"#w c #fcde64",
"#x c #dcba5c",
"#y c #fceaa4",
"#z c #f4ead4",
"#A c #d4b274",
"#B c #dcc26c",
"#C c #e4dab4",
"#D c #f4e672",
"#E c #dcca84",
"#F c #e4da74",
"#G c #e4da94",
"#H c #ccae64",
"#I c #dcca9c",
"#J c #f4da5c",
"#K c #ccb24c",
"#L c #dcbe79",
"#M c #e4d26c",
"#N c #e4d284",
"#O c #f4da72",
"#P c #fcfab0",
"#Q c #fcfac4",
"#R c #e4d294",
"#S c #ecdaaf",
"#T c #ecda7e",
"#U c #ecda6c",
"#V c #ecda94",
"#W c #ece69c",
"#X c #ecd26a",
"#Y c #d4c274",
"#Z c #e4ca82",
"#0 c #fcf2b4",
"#1 c #bc9a44",
"#2 c #d4b24c",
"#3 c #b4924c",
"#4 c #e4c25c",
"#5 c #f4e6a0",
"#6 c #c49a44",
"#7 c #fcf29f",
"#8 c #d4c28c",
"a` c #bc9a4c",
"a. c #f4e6bc",
"a# c #e4ca74",
"aa c #ecda8c",
"ab c #ecda74",
"ac c #fcf2bc",
"ad c #ccaa5c",
"ae c #ecdaa4",
"af c #bc923c",
"ag c #fce67c",
"ah c #e4ca5c",
"ai c #ac8634",
"aj c #e4d6b4",
"ak c #c4a65c",
"al c #e4d684",
"am c #f4eee4",
"an c #e4d674",
"ao c #ece2b4",
"ap c #e4d69c",
"aq c #ece294",
"ar c #ece2cc",
"as c #ccaa6c",
"at c #f4eecc",
"au c #fcfae4",
"av c #f4d65c",
"aw c #f4da9c",
"ax c #e4ce6c",
"ay c #f4de84",
"az c #fceab4",
"aA c #ecdeb4",
"aB c #e4de84",
"aC c #f4eab4",
"aD c #e4ce84",
"aE c #fcf6e4",
"aF c #ecde9c",
"aG c #d4ba6c",
"aH c #f4e2b4",
"aI c #fcf6cc",
"aJ c #fcea84",
"aK c #fcf69c",
"aL c #e4ce9c",
"aM c #fcfafc",
"aN c #cca654",
"aO c #ecd66c",
"aP c #dcc294",
"aQ c #fcf2e4",
"aR c #e4c66c",
"aS c #fceeb4",
"aT c #fcf2cc",
"aU c #d4ae4c",
"aV c #dcc27c",
"aW c #dcb66c",
"aX c #f4e6cc",
"aY c #e4ca9c",
"aZ c #f4de74",
"a0 c #c49644",
"a1 c #c4aa5c",
"a2 c #dcba54",
"a3 c #f4f2e4",
"a4 c #ece6b4",
"a5 c #fcfee4",
"a6 c #f4de9c",
"a7 c #ecdec4",
"a8 c #ecde8c",
/* pixels */
".Y.Y.Y.Y.Y.Y.Y.Y.Y.Y.Y.Y.Y.Y.Y.Y.Y.Y.Y.Y.Y.Y.Y.Y.Y.Y.Y.Y.Y.Y.Y.Y",
".Y.Y.Y.Y.Y.S.S.YaQaY.q.Y.Y.Y.Y.Y.Y.Y.Y.Y.Y#zaL`Y.Y.S`Y.Y.Y.Y.Y.Y",
".Y.Y.Y.Y.Yak`q`K`m#3aM.Y.Y.Y.Y.Y.Y.Y.Y.Y.Y.S.7#w.S.N.d.Y.Y.Y.Y.Y",
".Y.Y.Y.YaM#caPaC.d`Y.Y.Y.Y.Y.Y.Y.Y.Y.Y.Y.Y.Y.S.L`o#L.M.Y.Y.Y.Y.Y",
".Y.Y.Y`q.Z.6.8...x.q.Y.Y.Y.Y.Y.Y.Y.Y.Y.Y.Y.Y`g`7a8`e`NaT.f.Y.Y.Y",
".Y.Y.Y#f#Ia.`e#ba..Y.Y.Y.Y.Y.Y.Y.Y.Y.Y.Y.Y.Y.Y#Qay.7.Ja6#V.Y.Y.Y",
".Y.Y.Y#H.j#V#X.`.Y.Y.Y.Y.Y.Y.Y.Y.Y.Y.Y.Y.Y.Y.Y.Y`F`MaS`t.d.Y.Y.Y",
".Y.Z.Z.o#p`U.H#E#NaD`L#oaq`d.Y.Y.Y.Y.YaC#T.x.Qaq.`#r.F#ga5`saE.Y",
".Y#j#m.W`L#5.`#K`M#b.D.u#D`aab.Y.Y.Y`1.K#wag#P..`K.SaR.U`s.N#v.Y",
".Y#z#B.m`U.x.Y#Yag#b`j.D`a#D#D.H.Y.U.K.u#O#e#7#tau.Y#T#B.N.w`Y.Y",
"aQa3#8a2`l#v.Y.Yaq#b`Ialab#D`a.P.YaV`uav`2`1#O.u.G.Y.o.w`z.zau.Y",
"am#k`o.z`baT.Y.Y.H#b`G.Y.q`h#Dab`Yak`0#2a3.Y#R`z`K.Y`Q`xa.`P.w.Y",
".Y`v#a.x.m`Y.Y.Ya8#D#Uau.Y`f#eab.S`5`0.E`Y.Y.O`5a3.YaQ`a#T#B.M.Y",
"aM.`.M#y`qaM.Y.Y`L#D#U.q.Yan`aab.q`c`0ad.Y.Y.Y.Y.Y.Y.q.MaxaRaE.Y",
".C#Aa3.V.p`Y.Y.YaaaZaOa4.x#U.u#TaMa`#p.E.Y.Y.Y.Y.Y.YaQaJ.U`o#T.q",
".S.j#L`w.R.Y.Y.Y#NaZ#O#U.uaZ#O#5.Y`5`0ad.Y.Y.Y.Y.Y.Y`Y#D#o.7.3.Y",
".Yau`N`D.X.`.Y.Y`1#O#OaZ#OaZ#MaE.Y.l#p`caM.YaQ.C.S.YaH#7`J#4.G.Y",
".Yae.o.V#Z`o.Y.Y#V#O`M#M#O.u#G.Y.Y`v`0`c.S.Y.X`V#z.Y`6aK.W.X.U.Y",
".Y#0.c#ZaDa..Y.Y`4`x.3#u.waZ#X`Y.Y.2.eaf#I#i#Haf#z.Y#n#O.7.saC.Y",
".Y.Y.J`N.z.RaQ.Y#V#5`C`l.7#O#O#M.W`k.A`R#`.e`v#c`Wa7.U#uaU#S.Y.Y",
".Y.Y#v.oaA#q#s.Y#G.d#O`M###Oav#J`y#I`R#c``#6#c`RaX.X.d`#aj.W.Y.Y",
".Y.Yac#V.c#V.UaXao.8#g#X#u`B.B`.`yaX.C`R``af#1.a.#.z.v.8ak#u.Y.Y",
".Y.Y.Yau`Qa.`3aw`g`g`K.G.YaE#v.`#z`Y.Y.S`W#z.G#SaV`d#S`q.k.Y.Y.Y",
".Y.Y.Y.qaT.Z.iaz.xaE.Y.Y.Y.Y.Y.Y.Y.Y.Y.Y.Y.Y.Z.U.x`p.O#S.S.Y.Y.Y",
".Y.Y.Y.qaS.d.c`F#u#0a.`Y.Y.Y.Y.Y.Y.Y.Y.Y.S`F.c`EaA#B.6as.S.Y.Y.Y",
".Y.Y.Y.Y.Yau`o#S.8.1a6.z.Y.Y.Y.Y.Y.Y.Y.Y#L.U.raG#S.Z`g.Y.Y.Y.Y.Y",
".Y.Y.Y.Y.Y.Y`N.MaV.X.p`baM.Y.Y.Y.Y.Y.Y.`.iaP.X.cad#h.Y.Y.Y.Y.Y.Y",
".Y.Y.Y.Y.Y.Y.Y.q.`ao.c.6aYaX`Y.Y.Y`Yar.X.L.R.X`g`KaM.Y.Y.Y.Y.Y.Y",
".Y.Y.Y.Y.Y.Y.Y.Y`s.t#a.Oa3.W.1#n`X.Xa7.q`sa#aN.`.Y.Y.Y.Y.Y.Y.Y.Y",
".Y.Y.Y.Y.Y.Y.Y.Y.Y.Y.Y.Y.Y.W.5aX#v.U#z.Y.Y.Y.Y.Y.Y.Y.Y.Y.Y.Y.Y.Y",
".Y.Y.Y.Y.Y.Y.Y.Y.Y.Y.Y.Y.Y`YaM.Y.Y.Y.S.Y.Y.Y.Y.Y.Y.Y.Y.Y.Y.Y.Y.Y",
".Y.Y.Y.Y.Y.Y.Y.Y.Y.Y.Y.Y.Y.Y.Y.Y.Y.Y.Y.Y.Y.Y.Y.Y.Y.Y.Y.Y.Y.Y.Y.Y"
};
