/* XPM */
static char *roco32_xpm[] = {
/* width height num_colors chars_per_pixel */
"    32    32      256            2",
/* colors */
"`` c #1c1430",
"`. c #0c9a14",
"`# c #8c9044",
"`a c #2c5644",
"`b c #84dac4",
"`c c #645034",
"`d c #bc8a4c",
"`e c #6c7a74",
"`f c #c4c684",
"`g c #e4e68c",
"`h c #bcae68",
"`i c #4c3224",
"`j c #947149",
"`k c #845e38",
"`l c #cccac4",
"`m c #283644",
"`n c #dcb264",
"`o c #948154",
"`p c #a4b2a4",
"`q c #24be14",
"`r c #645e54",
"`s c #445634",
"`t c #e4e6ec",
"`u c #bcaea4",
"`v c #a48a54",
"`w c #e4c674",
"`x c #c4be6c",
"`y c #a49a4c",
"`z c #373444",
"`A c #e4d77c",
"`B c #ac7f4f",
"`C c #fcf8d8",
"`D c #247a24",
"`E c #bc9c5c",
"`F c #1c2243",
"`G c #e0d8cc",
"`H c #ac8a6c",
"`I c #ccad5f",
"`J c #644234",
"`K c #0497d9",
"`L c #745434",
"`M c #948684",
"`N c #06c0fc",
"`O c #cca55c",
"`P c #a4804f",
"`Q c #745f42",
"`R c #a4965c",
"`S c #f4e7d4",
"`T c #394357",
"`U c #846f51",
"`V c #a67942",
"`W c #876741",
"`X c #746654",
"`Y c #1b6c9d",
"`Z c #bc9c74",
"`0 c #4c8ea4",
"`1 c #947952",
"`2 c #54623c",
"`3 c #f4da7c",
"`4 c #ccb07a",
"`5 c #f4ece6",
"`6 c #107aae",
"`7 c #f8eaa8",
"`8 c #e0b880",
".` c #ecce88",
".. c #3a3c42",
".# c #8c7e7c",
".a c #2c1a14",
".b c #504542",
".c c #dcc8b4",
".d c #9c865c",
".e c #2c2439",
".f c #f4deac",
".g c #07b5fc",
".h c #8c7c4c",
".i c #645049",
".j c #40ca1c",
".k c #76604d",
".l c #946747",
".m c #244e74",
".n c #2c4634",
".o c #444e5c",
".p c #ecd898",
".q c #bca261",
".r c #64493f",
".s c #74565c",
".t c #b4945b",
".u c #8c7654",
".v c #2c6a94",
".w c #fcf48c",
".x c #9a805e",
".y c #ccbd91",
".z c #b48c52",
".A c #44c2ec",
".B c #948e6c",
".C c #c4aa84",
".D c #dcc274",
".E c #ecd172",
".F c #fcf9f6",
".G c #d9d9dc",
".H c #d4b46a",
".I c #86694d",
".J c #0e75aa",
".K c #9c794a",
".L c #f4f2ec",
".M c #dccfc1",
".N c #66574c",
".O c #1a1d40",
".P c #f4e884",
".Q c #d4bc6c",
".R c #eae082",
".S c #1894d8",
".T c #a48657",
".U c #8c6f4a",
".V c #443d46",
".W c #5c4644",
".X c #2c2c44",
".Y c #0c66a4",
".Z c #548e34",
".0 c #9c725c",
".1 c #885c50",
".2 c #5a4f49",
".3 c #b49d79",
".4 c #443644",
".5 c #ac8650",
".6 c #c49c5c",
".7 c #7c5a41",
".8 c #04c7fc",
"#` c #7c6042",
"#. c #0cea04",
"## c #54b22c",
"#a c #3caed4",
"#b c #14ba14",
"#c c #3c728c",
"#d c #b4d6a4",
"#e c #34c22c",
"#f c #64a6a4",
"#g c #6ccecc",
"#h c #5cc224",
"#i c #a4ba8c",
"#j c #349e34",
"#k c #8c9e4c",
"#l c #2c5e74",
"#m c #20445c",
"#n c #2c82a4",
"#o c #14d204",
"#p c #74ba34",
"#q c #dcd67c",
"#r c #5c5654",
"#s c #2c123c",
"#t c #5cd62c",
"#u c #246634",
"#v c #9c9694",
"#w c #748274",
"#x c #4c3e44",
"#y c #ece2d5",
"#z c #2c3e54",
"#A c #54cedc",
"#B c #dcdee4",
"#C c #d0c0b0",
"#D c #d8c680",
"#E c #ccb594",
"#F c #44424c",
"#G c #f4d28c",
"#H c #1c5e8c",
"#I c #2c465c",
"#J c #af926c",
"#K c #fcf2c4",
"#L c #dcbf81",
"#M c #2cce14",
"#N c #bc9450",
"#O c #b4aaa4",
"#P c #b4a05c",
"#Q c #dce2bc",
"#R c #bca684",
"#S c #f4e179",
"#T c #241c38",
"#U c #7c767c",
"#V c #4cc82c",
"#W c #4c6c40",
"#X c #4c3e34",
"#Y c #243264",
"#Z c #343e5c",
"#0 c #74463c",
"#1 c #ecc264",
"#2 c #1c729c",
"#3 c #f4e69c",
"#4 c #ccced4",
"#5 c #c8c284",
"#6 c #344a44",
"#7 c #fcf2b4",
"#8 c #e4d294",
"a` c #544a4c",
"a. c #84a634",
"a# c #2c668c",
"aa c #1c4a74",
"ab c #2c769c",
"ac c #8c967c",
"ad c #c1b274",
"ae c #fceebc",
"af c #e4ca9c",
"ag c #4c4450",
"ah c #2a628c",
"ai c #585a6c",
"aj c #ac9684",
"ak c #f7eedc",
"al c #345e3c",
"am c #242a44",
"an c #0c9ed4",
"ao c #acc294",
"ap c #07bafc",
"aq c #fcfefc",
"ar c #b4b2b4",
"as c #b48e64",
"at c #d4be84",
"au c #dcc294",
"av c #bc9561",
"aw c #948e54",
"ax c #6c5234",
"ay c #747664",
"az c #c4ad67",
"aA c #ece7e1",
"aB c #ac8d56",
"aC c #ecc767",
"aD c #b48254",
"aE c #7c5440",
"aF c #d4a658",
"aG c #ac9358",
"aH c #7c684d",
"aI c #fcd66c",
"aJ c #d4b274",
"aK c #6c5244",
"aL c #c4a460",
"aM c #6c4a39",
"aN c #7c574f",
"aO c #d4ba9c",
"aP c #e4c067",
"aQ c #f4d171",
"aR c #e4d2ba",
"aS c #fcea84",
"aT c #342e4c",
"aU c #e4e0d8",
"aV c #2c1e44",
"aW c #fcf2e7",
"aX c #c4a679",
"aY c #9c6e44",
"aZ c #8c6239",
"a0 c #d4c8bc",
"a1 c #9c7f50",
"a2 c #6c5f4f",
"a3 c #ccba74",
"a4 c #ecda78",
"a5 c #242544",
"a6 c #d4ae60",
"a7 c #6c3f39",
"a8 c #0c9adc",
/* pixels */
"aqaqaqaqaqaqaqaqaqaqaqaq.L#B#4#4#4.GaU.Faqaqaqaqaqaqaqaqaqaqaqaq",
"aqaqaqaqaqaqaqaqaq`Sar.#`z.O.O#T.O.O`Fag#va0.Laqaqaqaqaqaqaqaqaq",
"aqaqaqaqaqaqaq.FaR#``1.h.X.X.X`maT.X.X`z`v.I`1#y.Faqaqaqaqaqaqaq",
"aqaqaqaqaqaqak#`.IaG`Q.O.X.Xa5.ea5am.Xa5`FaH`E.I.x.Faqaqaqaqaqaq",
"aqaqaqaqaqaR.t.u.kaT`Fa5.X.X`m`z`z`zam.Xa5am`z#``o.C#yaqaqaqaqaq",
"aqaqaqaqak#`aK`1a2`z..a`.W.l`I.HaM#`aB#x.2`z.Va2`o.W.x.Faqaqaqaq",
"aqaqaqaW.3a1aB.K.d.z.T`j.z.t.t`4.x#Ja6.U`W`P`y#V.h.T`PaO.Faqaqaq",
"aqaqaq`4#x.I#F`B`F`raYaE`O.y`Jaz`C#3aP.KaMa.#o#VaYagaH.baRaqaqaq",
"aqaq.Fas`1.u.O.xa`.O`F.daL#5aM`4`C.p.H`j.i#j#.#p.s`F.T.U`4aqaqaq",
"aqaq#E`Q.U`z.O.N`U`Fa5aH#N#D`L`4#K.p`I`W.2`q#e#k.4`Fa`.U.uaRaqaq",
"aqaq`Z.2.T.Xamam`o.b.O.2`Pat.UaXae.p.q.1#V`.aN.7.Oam.Va1.2aOaqaq",
"aq`5#J`P.k`F.Xa5.V`o...e`jad.T.6`7#8aD.Z#b.iac`6.m.ea5`1.KaO.Faq",
"aq.c.k.k.k`F.X.Xa5.V.d.I`QavaX`E#3`8`##Maw`Wab`N`Y.eam`W.2`jaAaq",
"aqaAa1.Ka2.O.X.X.Xa5am`o`kaZ`Iad#G`I.j`#aN``a#.g`Y.e.O`1`Uav.Faq",
"aq#C.K`1.2a5.Xam.X.Xa5.X.X.r`d`na6#t#WaT.Jaa.vap`YaVama2aY#JaAaq",
"aq.c.N#`.u.O.X.Xa5.X.Xamam.X.k`d#h#W#s#I`N.Jahap`Y.e`F`P.2.U#yaq",
"aq`5`E.KaH`F.X.Xam.Xa5.X.Xa5`m##`2#Y#m#Z.g.Ja#`N`Y#Tam.K.U#Laqaq",
"aq#y`o`Wa1.Va5.X.Xam.X.X#T#6`DaG.1`Ka8#Z.g.Jah`N`Y#T.2a1#`#R.Faq",
"aq.F.5.V`P#x`F.Xa5.Xa5.e`a#u`T`p#J.S`K#zap.Jah`N#2``.N.U.2aXaqaq",
"aqaq`S#N`PaH`zam.Xa5`zal`sa7`0.g.y#a`K`T`N`6ah.8`Y.4`1.K`OaWaqaq",
"aqaqaA`1.i`P#r.OaT...n#m.S.B#f.g#Q.Aan.iap`6ah.8.Y`W.U.i.3aqaqaq",
"aqaq.Fav.N.U`j`z#z#l.o#w`b`ha3`f.D`f#i.3#A#n#H.8#c`V.k`U#Eaqaqaq",
"aqaqaq`5aPaG`Ua1ay#d`gaSaQa4`waCaP`waQ#S#S`Aao#g`1#`aB.`.Faqaqaq",
"aqaqaqaq#C`W`eaz.Ea4`A.R.P#S.E.E.E`3#S#S.R.w#SaQ.q`c.UaAaqaqaqaq",
"aqaqaqaq#y.KaZ#N.Q#S.P`A`h#P.q.z.TaG`v`h#q.R`A.QaB`kaD`5aqaqaqaq",
"aqaqaqaq`HaF`k.K#P`yaL`j`VaEa7#0#0a7`W`V.l#P`R.taZ`V.6ajaqaqaqaq",
"aqaqaqaq.M.z`d`L#NaBaB.W`1aP#``z`z.l#1.I.W`PaB#N`L`I.laAaqaqaqaq",
"aqaqaqaW.f.D`c`i.K#8a1.iaH.t`W.e`z`Wa1`X.N.taf`Q.aax.D#7aWaqaqaq",
"aq`G`Z#Na6#S`x#P.GaA.C.H.`au#Uai#r`M#LaQ`8#E.L.G`o`h.waC`OaXaAaq",
"aq#y.M.5`O.D`G.Faqaqaq.Faqaqaqaqaqaqaq.Faqaqaqaqaqaka4a6.H`5.Laq",
"aqaqa0.5`S.Faqaqaqaqaqaqaqaqaqaqaqaqaqaqaqaqaqaqaqaq.F.MaBa0aqaq",
"aqaU`u.Faqaqaqaqaqaqaqaqaqaqaqaqaqaqaqaqaqaqaqaqaqaqaqaq.F#OaAaq"
};
